<svg width="247" height="68" viewBox="0 0 247 68" fill="none" xmlns="http://www.w3.org/2000/svg">
<rect x="1.01074" y="1.59125" width="244.193" height="64.9662" rx="9" fill="#FEFBFF" stroke="black" stroke-width="2"/>
<rect x="6.30371" y="6.68451" width="232.102" height="54.6965" rx="9.25" fill="#FF7F00" stroke="black" stroke-width="1.5"/>
<mask id="path-3-inside-1_321_2127" fill="white">
<path fill-rule="evenodd" clip-rule="evenodd" d="M53.0025 37.7007L51.0919 48.0061C50.5521 50.9183 47.7536 52.8415 44.8413 52.3016C41.9291 51.7617 40.006 48.9632 40.5459 46.051L45.1333 21.3063C45.4932 19.3648 46.857 17.8629 48.589 17.2373C48.6738 17.1926 48.7604 17.1502 48.8488 17.1101C51.2177 16.0377 54.0074 17.0886 55.0799 19.4575L62.077 34.9126L69.0102 19.6039C69.6303 18.2347 70.8746 17.3447 72.2543 17.1181C72.406 17.0759 72.5608 17.04 72.7186 17.0108C75.6308 16.4709 78.4293 18.394 78.9692 21.3063L83.5566 46.051C84.0965 48.9632 82.1733 51.7617 79.2611 52.3016C76.3489 52.8415 73.5504 50.9183 73.0105 48.0061L70.8719 36.4702L65.7993 47.6708C64.8133 49.8477 62.2493 50.8132 60.0724 49.8273C59.7417 49.6775 59.4389 49.4913 59.1666 49.2756C58.369 48.8002 57.7036 48.0847 57.2916 47.1747L53.0025 37.7007Z"/>
</mask>
<path fill-rule="evenodd" clip-rule="evenodd" d="M53.0025 37.7007L51.0919 48.0061C50.5521 50.9183 47.7536 52.8415 44.8413 52.3016C41.9291 51.7617 40.006 48.9632 40.5459 46.051L45.1333 21.3063C45.4932 19.3648 46.857 17.8629 48.589 17.2373C48.6738 17.1926 48.7604 17.1502 48.8488 17.1101C51.2177 16.0377 54.0074 17.0886 55.0799 19.4575L62.077 34.9126L69.0102 19.6039C69.6303 18.2347 70.8746 17.3447 72.2543 17.1181C72.406 17.0759 72.5608 17.04 72.7186 17.0108C75.6308 16.4709 78.4293 18.394 78.9692 21.3063L83.5566 46.051C84.0965 48.9632 82.1733 51.7617 79.2611 52.3016C76.3489 52.8415 73.5504 50.9183 73.0105 48.0061L70.8719 36.4702L65.7993 47.6708C64.8133 49.8477 62.2493 50.8132 60.0724 49.8273C59.7417 49.6775 59.4389 49.4913 59.1666 49.2756C58.369 48.8002 57.7036 48.0847 57.2916 47.1747L53.0025 37.7007Z" fill="white"/>
<path d="M51.0919 48.0061L52.5668 48.2795L52.5668 48.2795L51.0919 48.0061ZM53.0025 37.7007L54.3689 37.0821C54.0987 36.4851 53.4721 36.1326 52.8215 36.2117C52.171 36.2907 51.647 36.783 51.5276 37.4273L53.0025 37.7007ZM44.8413 52.3016L44.5679 53.7764L44.5679 53.7764L44.8413 52.3016ZM40.5459 46.051L39.071 45.7775L39.071 45.7775L40.5459 46.051ZM45.1333 21.3063L43.6584 21.0328L43.6584 21.0328L45.1333 21.3063ZM48.589 17.2373L49.0986 18.6481C49.164 18.6245 49.2277 18.5964 49.2892 18.5639L48.589 17.2373ZM48.8488 17.1101L48.2302 15.7437L48.2302 15.7437L48.8488 17.1101ZM55.0799 19.4575L56.4464 18.8388L56.4464 18.8388L55.0799 19.4575ZM62.077 34.9126L60.7105 35.5313C60.9534 36.0678 61.4879 36.4126 62.0769 36.4126C62.6659 36.4127 63.2004 36.068 63.4434 35.5315L62.077 34.9126ZM69.0102 19.6039L70.3766 20.2227L70.3766 20.2227L69.0102 19.6039ZM72.2543 17.1181L72.4975 18.5982C72.5509 18.5894 72.6038 18.5778 72.6559 18.5633L72.2543 17.1181ZM72.7186 17.0108L72.992 18.4857L72.992 18.4857L72.7186 17.0108ZM78.9692 21.3063L80.444 21.0328L80.444 21.0328L78.9692 21.3063ZM83.5566 46.051L85.0315 45.7775L85.0315 45.7775L83.5566 46.051ZM79.2611 52.3016L79.5345 53.7764L79.5345 53.7764L79.2611 52.3016ZM73.0105 48.0061L71.5356 48.2795L71.5356 48.2795L73.0105 48.0061ZM70.8719 36.4702L72.3467 36.1968C72.2273 35.5525 71.7034 35.0603 71.0529 34.9812C70.4024 34.9021 69.7758 35.2545 69.5055 35.8514L70.8719 36.4702ZM65.7993 47.6708L67.1657 48.2896L67.1657 48.2896L65.7993 47.6708ZM60.0724 49.8273L60.6912 48.4609L60.6912 48.4609L60.0724 49.8273ZM59.1666 49.2756L60.0983 48.1C60.0463 48.0588 59.9916 48.021 59.9346 47.987L59.1666 49.2756ZM57.2916 47.1747L58.6581 46.556L58.6581 46.556L57.2916 47.1747ZM52.5668 48.2795L54.4773 37.9742L51.5276 37.4273L49.6171 47.7327L52.5668 48.2795ZM44.5679 53.7764C48.2947 54.4673 51.8759 52.0063 52.5668 48.2795L49.6171 47.7327C49.2282 49.8303 47.2124 51.2156 45.1148 50.8267L44.5679 53.7764ZM39.071 45.7775C38.3801 49.5043 40.8412 53.0855 44.5679 53.7764L45.1148 50.8267C43.0171 50.4378 41.6319 48.4221 42.0207 46.3244L39.071 45.7775ZM43.6584 21.0328L39.071 45.7775L42.0207 46.3244L46.6082 21.5797L43.6584 21.0328ZM48.0795 15.8265C45.8673 16.6255 44.1194 18.5465 43.6584 21.0328L46.6082 21.5797C46.8671 20.1831 47.8467 19.1003 49.0986 18.6481L48.0795 15.8265ZM48.2302 15.7437C48.1141 15.7962 48.0004 15.8519 47.8889 15.9108L49.2892 18.5639C49.3472 18.5333 49.4066 18.5042 49.4675 18.4766L48.2302 15.7437ZM56.4464 18.8388C55.0323 15.7153 51.3537 14.3295 48.2302 15.7437L49.4675 18.4766C51.0816 17.7458 52.9826 18.462 53.7134 20.0761L56.4464 18.8388ZM63.4434 34.294L56.4464 18.8388L53.7134 20.0761L60.7105 35.5313L63.4434 34.294ZM67.6438 18.985L60.7106 34.2938L63.4434 35.5315L70.3766 20.2227L67.6438 18.985ZM72.0112 15.6379C70.1577 15.9423 68.4794 17.1399 67.6438 18.985L70.3766 20.2227C70.7811 19.3294 71.5916 18.747 72.4975 18.5982L72.0112 15.6379ZM72.6559 18.5633C72.7654 18.5329 72.8775 18.5069 72.992 18.4857L72.4451 15.5359C72.2442 15.5732 72.0466 15.6189 71.8528 15.6728L72.6559 18.5633ZM72.992 18.4857C75.0897 18.0968 77.1054 19.482 77.4943 21.5797L80.444 21.0328C79.7531 17.3061 76.1719 14.845 72.4451 15.5359L72.992 18.4857ZM77.4943 21.5797L82.0817 46.3244L85.0315 45.7775L80.444 21.0328L77.4943 21.5797ZM82.0817 46.3244C82.4706 48.4221 81.0854 50.4378 78.9877 50.8267L79.5345 53.7764C83.2613 53.0855 85.7224 49.5043 85.0315 45.7775L82.0817 46.3244ZM78.9877 50.8267C76.89 51.2156 74.8743 49.8303 74.4854 47.7327L71.5356 48.2795C72.2265 52.0063 75.8078 54.4673 79.5345 53.7764L78.9877 50.8267ZM74.4854 47.7327L72.3467 36.1968L69.397 36.7437L71.5356 48.2795L74.4854 47.7327ZM67.1657 48.2896L72.2383 37.0891L69.5055 35.8514L64.4329 47.052L67.1657 48.2896ZM59.4536 51.1937C62.3851 52.5214 65.838 51.2212 67.1657 48.2896L64.4329 47.052C63.7887 48.4743 62.1135 49.1051 60.6912 48.4609L59.4536 51.1937ZM58.2349 50.4511C58.6025 50.7424 59.0102 50.9929 59.4536 51.1937L60.6912 48.4609C60.4731 48.3621 60.2752 48.2402 60.0983 48.1L58.2349 50.4511ZM55.9251 47.7933C56.4676 48.9914 57.3463 49.9369 58.3987 50.5641L59.9346 47.987C59.3917 47.6635 58.9397 47.1779 58.6581 46.556L55.9251 47.7933ZM51.636 38.3194L55.9251 47.7933L58.6581 46.556L54.3689 37.0821L51.636 38.3194Z" fill="black" mask="url(#path-3-inside-1_321_2127)"/>
<rect x="89.9893" y="17.5546" width="8.26974" height="33.9729" rx="4.13487" fill="white" stroke="black" stroke-width="1.5"/>
<mask id="path-6-inside-2_321_2127" fill="white">
<path fill-rule="evenodd" clip-rule="evenodd" d="M107.693 17.9681C105.526 19.7909 105.148 23.1043 106.847 25.3687L113.736 34.5469L106.847 43.7252C105.148 45.9896 105.526 49.303 107.693 51.1258C109.859 52.9485 112.993 52.5905 114.693 50.3261L119.892 43.3978L125.03 50.2429C126.729 52.5074 129.863 52.8654 132.029 51.0426C134.196 49.2198 134.574 45.9065 132.875 43.642L126.049 34.5472L132.875 25.4523C134.574 23.1879 134.196 19.8745 132.029 18.0517C129.863 16.229 126.729 16.587 125.03 18.8514L119.893 25.6963L114.693 18.7678C112.993 16.5034 109.859 16.1454 107.693 17.9681Z"/>
</mask>
<path fill-rule="evenodd" clip-rule="evenodd" d="M107.693 17.9681C105.526 19.7909 105.148 23.1043 106.847 25.3687L113.736 34.5469L106.847 43.7252C105.148 45.9896 105.526 49.303 107.693 51.1258C109.859 52.9485 112.993 52.5905 114.693 50.3261L119.892 43.3978L125.03 50.2429C126.729 52.5074 129.863 52.8654 132.029 51.0426C134.196 49.2198 134.574 45.9065 132.875 43.642L126.049 34.5472L132.875 25.4523C134.574 23.1879 134.196 19.8745 132.029 18.0517C129.863 16.229 126.729 16.587 125.03 18.8514L119.893 25.6963L114.693 18.7678C112.993 16.5034 109.859 16.1454 107.693 17.9681Z" fill="white"/>
<path d="M106.847 25.3687L108.047 24.4683L108.047 24.4683L106.847 25.3687ZM107.693 17.9681L106.727 16.8204L106.727 16.8204L107.693 17.9681ZM113.736 34.5469L114.935 35.4473L115.611 34.5469L114.935 33.6466L113.736 34.5469ZM106.847 43.7252L105.648 42.8248L105.648 42.8248L106.847 43.7252ZM107.693 51.1258L108.659 49.978L108.659 49.978L107.693 51.1258ZM114.693 50.3261L113.493 49.4257L113.493 49.4257L114.693 50.3261ZM119.892 43.3978L121.092 42.4974L119.892 40.8989L118.693 42.4974L119.892 43.3978ZM125.03 50.2429L123.83 51.1433L123.83 51.1433L125.03 50.2429ZM132.029 51.0426L132.995 52.1904L132.995 52.1904L132.029 51.0426ZM132.875 43.642L134.075 42.7417L134.075 42.7417L132.875 43.642ZM126.049 34.5472L124.849 33.6468L124.174 34.5472L124.849 35.4476L126.049 34.5472ZM132.875 25.4523L134.075 26.3527L134.075 26.3527L132.875 25.4523ZM132.029 18.0517L131.064 19.1995L131.064 19.1995L132.029 18.0517ZM125.03 18.8514L126.229 19.7518L126.229 19.7518L125.03 18.8514ZM119.893 25.6963L118.693 26.5967L119.893 28.1952L121.092 26.5967L119.893 25.6963ZM114.693 18.7678L113.493 19.6682L114.693 18.7678ZM108.047 24.4683C106.825 22.8405 107.101 20.4262 108.659 19.1159L106.727 16.8204C103.952 19.1556 103.47 23.368 105.648 26.2691L108.047 24.4683ZM114.935 33.6466L108.047 24.4683L105.648 26.2691L112.536 35.4473L114.935 33.6466ZM108.047 44.6256L114.935 35.4473L112.536 33.6466L105.648 42.8248L108.047 44.6256ZM108.659 49.978C107.101 48.6677 106.825 46.2534 108.047 44.6256L105.648 42.8248C103.47 45.7259 103.952 49.9383 106.727 52.2735L108.659 49.978ZM113.493 49.4257C112.31 51.0013 110.166 51.2463 108.659 49.978L106.727 52.2735C109.552 54.6508 113.676 54.1797 115.892 51.2265L113.493 49.4257ZM118.693 42.4974L113.493 49.4257L115.892 51.2265L121.092 44.2982L118.693 42.4974ZM126.229 49.3425L121.092 42.4974L118.693 44.2982L123.83 51.1433L126.229 49.3425ZM131.064 49.8948C129.556 51.1632 127.412 50.9182 126.229 49.3425L123.83 51.1433C126.046 54.0966 130.17 54.5676 132.995 52.1904L131.064 49.8948ZM131.675 44.5424C132.897 46.1702 132.621 48.5845 131.064 49.8948L132.995 52.1904C135.771 49.8551 136.252 45.6428 134.075 42.7417L131.675 44.5424ZM124.849 35.4476L131.675 44.5424L134.075 42.7417L127.249 33.6468L124.849 35.4476ZM131.675 24.5519L124.849 33.6468L127.249 35.4476L134.075 26.3527L131.675 24.5519ZM131.064 19.1995C132.621 20.5098 132.897 22.9241 131.675 24.5519L134.075 26.3527C136.252 23.4516 135.771 19.2392 132.995 16.904L131.064 19.1995ZM126.229 19.7518C127.412 18.1762 129.556 17.9312 131.064 19.1995L132.995 16.904C130.17 14.5267 126.046 14.9978 123.83 17.951L126.229 19.7518ZM121.092 26.5967L126.229 19.7518L123.83 17.951L118.693 24.7959L121.092 26.5967ZM113.493 19.6682L118.693 26.5967L121.092 24.7959L115.892 17.8674L113.493 19.6682ZM108.659 19.1159C110.166 17.8476 112.31 18.0926 113.493 19.6682L115.892 17.8674C113.676 14.9142 109.552 14.4431 106.727 16.8204L108.659 19.1159Z" fill="black" mask="url(#path-6-inside-2_321_2127)"/>
<mask id="path-8-inside-3_321_2127" fill="white">
<path fill-rule="evenodd" clip-rule="evenodd" d="M146.23 16.8046C142.917 16.8046 140.23 19.4909 140.23 22.8046V46.2895C140.23 49.6032 142.917 52.2895 146.23 52.2895H149.943V52.2893H164.47C167.404 52.2893 169.783 49.9106 169.783 46.9764C169.783 44.0422 167.404 41.6635 164.47 41.6635H149.943V39.1353H162.115C164.65 39.1353 166.704 37.081 166.704 34.5469C166.704 32.0127 164.65 29.9584 162.115 29.9584H149.943V27.4304H164.47C167.404 27.4304 169.783 25.0517 169.783 22.1175C169.783 19.1833 167.404 16.8046 164.47 16.8046H149.943H147.203H146.23Z"/>
</mask>
<path fill-rule="evenodd" clip-rule="evenodd" d="M146.23 16.8046C142.917 16.8046 140.23 19.4909 140.23 22.8046V46.2895C140.23 49.6032 142.917 52.2895 146.23 52.2895H149.943V52.2893H164.47C167.404 52.2893 169.783 49.9106 169.783 46.9764C169.783 44.0422 167.404 41.6635 164.47 41.6635H149.943V39.1353H162.115C164.65 39.1353 166.704 37.081 166.704 34.5469C166.704 32.0127 164.65 29.9584 162.115 29.9584H149.943V27.4304H164.47C167.404 27.4304 169.783 25.0517 169.783 22.1175C169.783 19.1833 167.404 16.8046 164.47 16.8046H149.943H147.203H146.23Z" fill="white"/>
<path d="M149.943 52.2895V53.7895H151.443V52.2895H149.943ZM149.943 52.2893V50.7893H148.443V52.2893H149.943ZM149.943 41.6635H148.443V43.1635H149.943V41.6635ZM149.943 39.1353V37.6353H148.443V39.1353H149.943ZM149.943 29.9584H148.443V31.4584H149.943V29.9584ZM149.943 27.4304V25.9304H148.443V27.4304H149.943ZM141.73 22.8046C141.73 20.3193 143.745 18.3046 146.23 18.3046V15.3046C142.088 15.3046 138.73 18.6625 138.73 22.8046H141.73ZM141.73 46.2895V22.8046H138.73V46.2895H141.73ZM146.23 50.7895C143.745 50.7895 141.73 48.7747 141.73 46.2895H138.73C138.73 50.4316 142.088 53.7895 146.23 53.7895V50.7895ZM149.943 50.7895H146.23V53.7895H149.943V50.7895ZM148.443 52.2893V52.2895H151.443V52.2893H148.443ZM164.47 50.7893H149.943V53.7893H164.47V50.7893ZM168.283 46.9764C168.283 49.0822 166.576 50.7893 164.47 50.7893V53.7893C168.233 53.7893 171.283 50.739 171.283 46.9764H168.283ZM164.47 43.1635C166.576 43.1635 168.283 44.8706 168.283 46.9764H171.283C171.283 43.2137 168.233 40.1635 164.47 40.1635V43.1635ZM149.943 43.1635H164.47V40.1635H149.943V43.1635ZM148.443 39.1353V41.6635H151.443V39.1353H148.443ZM162.115 37.6353H149.943V40.6353H162.115V37.6353ZM165.204 34.5469C165.204 36.2525 163.821 37.6353 162.115 37.6353V40.6353C165.478 40.6353 168.204 37.9094 168.204 34.5469H165.204ZM162.115 31.4584C163.821 31.4584 165.204 32.8412 165.204 34.5469H168.204C168.204 31.1843 165.478 28.4584 162.115 28.4584V31.4584ZM149.943 31.4584H162.115V28.4584H149.943V31.4584ZM148.443 27.4304V29.9584H151.443V27.4304H148.443ZM164.47 25.9304H149.943V28.9304H164.47V25.9304ZM168.283 22.1175C168.283 24.2233 166.576 25.9304 164.47 25.9304V28.9304C168.233 28.9304 171.283 25.8802 171.283 22.1175H168.283ZM164.47 18.3046C166.576 18.3046 168.283 20.0117 168.283 22.1175H171.283C171.283 18.3549 168.233 15.3046 164.47 15.3046V18.3046ZM149.943 18.3046H164.47V15.3046H149.943V18.3046ZM147.203 18.3046H149.943V15.3046H147.203V18.3046ZM146.23 18.3046H147.203V15.3046H146.23V18.3046Z" fill="black" mask="url(#path-8-inside-3_321_2127)"/>
<path fill-rule="evenodd" clip-rule="evenodd" d="M181.311 16.8046C177.445 16.8046 174.311 19.9386 174.311 23.8046V30.1283H174.311V46.6235C174.311 49.7457 176.842 52.2768 179.964 52.2768C183.086 52.2768 185.617 49.7457 185.617 46.6235V37.3116H185.951L195.473 49.9719C197.349 52.4672 200.894 52.9688 203.389 51.0921C205.884 49.2155 206.386 45.6714 204.509 43.1761L199.496 36.5108C203.183 34.9571 205.771 31.3098 205.771 27.0581C205.771 21.3953 201.18 16.8046 195.517 16.8046H181.311ZM191.436 25.0385H185.461V31.8326H191.436C193.312 31.8326 194.833 30.3117 194.833 28.4356C194.833 26.5594 193.312 25.0385 191.436 25.0385Z" fill="white"/>
<path d="M174.311 30.1283V30.8783C174.725 30.8783 175.061 30.5425 175.061 30.1283H174.311ZM174.311 30.1283V29.3783C173.896 29.3783 173.561 29.7141 173.561 30.1283H174.311ZM185.617 37.3116V36.5616C185.203 36.5616 184.867 36.8974 184.867 37.3116H185.617ZM185.951 37.3116L186.551 36.8608C186.409 36.6724 186.187 36.5616 185.951 36.5616V37.3116ZM195.473 49.9719L194.873 50.4227L194.873 50.4227L195.473 49.9719ZM203.389 51.0921L203.84 51.6915L203.84 51.6915L203.389 51.0921ZM204.509 43.1761L203.91 43.6269L203.91 43.6269L204.509 43.1761ZM199.496 36.5108L199.205 35.8197C198.992 35.9095 198.832 36.0924 198.772 36.3155C198.712 36.5386 198.758 36.777 198.897 36.9616L199.496 36.5108ZM185.461 25.0385V24.2885C185.047 24.2885 184.711 24.6243 184.711 25.0385H185.461ZM185.461 31.8326H184.711C184.711 32.2468 185.047 32.5826 185.461 32.5826V31.8326ZM175.061 23.8046C175.061 20.3528 177.859 17.5546 181.311 17.5546V16.0546C177.03 16.0546 173.561 19.5244 173.561 23.8046H175.061ZM175.061 30.1283V23.8046H173.561V30.1283H175.061ZM174.311 30.8783H174.311V29.3783H174.311V30.8783ZM175.061 46.6235V30.1283H173.561V46.6235H175.061ZM179.964 51.5268C177.256 51.5268 175.061 49.3315 175.061 46.6235H173.561C173.561 50.16 176.427 53.0268 179.964 53.0268V51.5268ZM184.867 46.6235C184.867 49.3315 182.672 51.5268 179.964 51.5268V53.0268C183.5 53.0268 186.367 50.16 186.367 46.6235H184.867ZM184.867 37.3116V46.6235H186.367V37.3116H184.867ZM185.951 36.5616H185.617V38.0616H185.951V36.5616ZM196.072 49.5211L186.551 36.8608L185.352 37.7624L194.873 50.4227L196.072 49.5211ZM202.938 50.4927C200.774 52.1204 197.7 51.6854 196.072 49.5211L194.873 50.4227C196.999 53.2491 201.013 53.8171 203.84 51.6915L202.938 50.4927ZM203.91 43.6269C205.537 45.7911 205.102 48.8651 202.938 50.4927L203.84 51.6915C206.666 49.566 207.234 45.5516 205.108 42.7253L203.91 43.6269ZM198.897 36.9616L203.91 43.6269L205.108 42.7253L200.096 36.0601L198.897 36.9616ZM205.021 27.0581C205.021 30.9976 202.623 34.379 199.205 35.8197L199.788 37.202C203.742 35.5352 206.521 31.622 206.521 27.0581H205.021ZM195.517 17.5546C200.766 17.5546 205.021 21.8095 205.021 27.0581H206.521C206.521 20.9811 201.594 16.0546 195.517 16.0546V17.5546ZM181.311 17.5546H195.517V16.0546H181.311V17.5546ZM185.461 25.7885H191.436V24.2885H185.461V25.7885ZM186.211 31.8326V25.0385H184.711V31.8326H186.211ZM191.436 31.0826H185.461V32.5826H191.436V31.0826ZM194.083 28.4356C194.083 29.8975 192.898 31.0826 191.436 31.0826V32.5826C193.727 32.5826 195.583 30.7259 195.583 28.4356H194.083ZM191.436 25.7885C192.898 25.7885 194.083 26.9736 194.083 28.4356H195.583C195.583 26.1452 193.727 24.2885 191.436 24.2885V25.7885Z" fill="black"/>
</svg>
