<svg width="25" height="24" viewBox="0 0 25 24" fill="none" xmlns="http://www.w3.org/2000/svg">
<path d="M16.97 12.9V17.1C16.97 20.6 15.57 22 12.07 22H7.86997C4.36997 22 2.96997 20.6 2.96997 17.1V12.9C2.96997 9.4 4.36997 8 7.86997 8H12.07C15.57 8 16.97 9.4 16.97 12.9Z" stroke="white" stroke-width="1.5" stroke-linecap="round" stroke-linejoin="round"/>
<path d="M22.97 6.9V11.1C22.97 14.6 21.57 16 18.07 16H16.97V12.9C16.97 9.4 15.57 8 12.07 8H8.96997V6.9C8.96997 3.4 10.37 2 13.87 2H18.07C21.57 2 22.97 3.4 22.97 6.9Z" stroke="white" stroke-width="1.5" stroke-linecap="round" stroke-linejoin="round"/>
</svg>
