<svg width="24" height="25" viewBox="0 0 24 25" fill="none" xmlns="http://www.w3.org/2000/svg">
<path d="M21 6.35986C17.67 6.02986 14.32 5.85986 10.98 5.85986C9 5.85986 7.02 5.95986 5.04 6.15986L3 6.35986" stroke="white" stroke-width="1.5" stroke-linecap="round" stroke-linejoin="round"/>
<path d="M8.5 5.34988L8.72 4.03988C8.88 3.08988 9 2.37988 10.69 2.37988H13.31C15 2.37988 15.13 3.12988 15.28 4.04988L15.5 5.34988" stroke="white" stroke-width="1.5" stroke-linecap="round" stroke-linejoin="round"/>
<path d="M15.2104 22.3798H8.79039C6.00039 22.3798 5.91039 21.1598 5.80039 19.5898L5.15039 9.51978" stroke="white" stroke-width="1.5" stroke-linecap="round" stroke-linejoin="round"/>
<path d="M18.8492 9.51978L18.1992 19.5898" stroke="white" stroke-width="1.5" stroke-linecap="round" stroke-linejoin="round"/>
<path d="M10.3301 16.8799H13.6601" stroke="white" stroke-width="1.5" stroke-linecap="round" stroke-linejoin="round"/>
<path d="M12.8203 12.8799H14.5003" stroke="white" stroke-width="1.5" stroke-linecap="round" stroke-linejoin="round"/>
<path d="M9.5 12.8799H10.33" stroke="white" stroke-width="1.5" stroke-linecap="round" stroke-linejoin="round"/>
</svg>
